<?xml version="1.0" standalone="no"?>
<!DOCTYPE svg PUBLIC "-//W3C//DTD SVG 20010904//EN"
 "http://www.w3.org/TR/2001/REC-SVG-20010904/DTD/svg10.dtd">
<svg version="1.0" xmlns="http://www.w3.org/2000/svg"
 width="130.000000pt" height="131.000000pt" viewBox="0 0 130.000000 131.000000"
 preserveAspectRatio="xMidYMid meet">

<g transform="translate(0.000000,131.000000) scale(0.100000,-0.100000)"
fill="#000000" stroke="none">
<path d="M567 1180 c-45 -8 -163 -58 -155 -66 2 -2 26 8 54 21 114 55 256 52
376 -7 73 -37 82 -33 15 6 -48 28 -154 56 -207 55 -19 -1 -57 -5 -83 -9z"/>
<path d="M502 1139 c-29 -12 -52 -23 -49 -25 2 -2 21 3 43 12 22 10 83 20 139
24 l100 7 -90 1 c-69 1 -103 -4 -143 -19z"/>
<path d="M512 1098 c-80 -27 -154 -91 -178 -153 l-17 -45 32 -29 c17 -16 31
-34 31 -40 0 -6 5 -11 10 -11 19 0 10 34 -16 61 l-26 27 21 41 c12 22 32 48
46 57 23 15 26 14 60 -11 37 -29 45 -45 21 -45 -19 0 -103 -76 -94 -85 4 -4
18 -1 31 8 12 8 59 25 102 37 64 18 98 21 177 18 93 -3 97 -3 71 12 -20 11
-59 15 -141 16 -61 0 -114 3 -115 5 -2 2 -8 20 -13 39 -7 24 -17 36 -34 41
-22 5 -18 8 30 23 162 49 323 21 417 -73 23 -24 45 -52 49 -64 4 -12 20 -34
35 -48 16 -15 29 -34 29 -43 0 -9 5 -16 10 -16 23 0 13 20 -75 158 -31 49
-107 102 -175 123 -19 6 -78 13 -130 15 -79 4 -106 1 -158 -18z"/>
<path d="M855 905 c50 -18 57 -18 25 0 -14 8 -34 14 -45 14 -11 0 -2 -6 20
-14z"/>
<path d="M568 893 l-46 -4 25 -25 c21 -21 24 -30 18 -65 -7 -39 -6 -40 14 -30
16 9 21 9 21 0 0 -7 12 -2 26 12 25 23 73 37 202 59 30 5 56 10 58 13 2 2 -28
14 -68 26 -70 20 -126 23 -250 14z m82 -20 c-14 -3 -35 -14 -46 -24 -21 -20
-21 -20 -27 0 -6 24 5 30 58 29 26 -1 31 -2 15 -5z m112 -19 c-5 -9 -23 -18
-39 -19 -16 -1 -40 -6 -53 -10 -41 -12 -19 2 35 23 63 25 68 26 57 6z"/>
<path d="M920 861 c-11 -22 0 -34 24 -25 21 8 22 -42 2 -89 -14 -35 -69 -87
-91 -87 -32 0 -24 91 10 120 13 11 14 6 9 -34 -8 -57 10 -63 32 -10 18 43 15
73 -8 88 -33 20 -88 -38 -108 -114 -6 -21 -17 -43 -25 -50 -19 -16 -19 -4 0
50 8 24 13 52 9 62 -7 24 -46 23 -69 -2 -14 -16 -21 -18 -33 -8 -21 18 -38
-11 -59 -104 -11 -47 -23 -78 -30 -78 -17 0 -16 16 2 76 19 61 19 84 1 84 -8
0 -26 -28 -40 -62 l-27 -63 7 49 c5 41 3 48 -9 43 -12 -5 -11 6 6 54 26 69 17
95 -28 92 -58 -4 -130 -111 -156 -230 -11 -47 -10 -56 4 -70 14 -14 17 -14 21
-2 29 93 42 123 77 182 43 73 64 86 30 19 -36 -70 -71 -189 -72 -244 -1 -29
-4 -41 -6 -25 -5 33 -23 34 -57 5 -24 -22 -26 -26 -17 -76 10 -65 32 -97 95
-140 131 -88 356 -88 486 0 64 43 84 74 86 132 2 44 5 50 32 62 26 11 60 50
50 59 -10 9 -69 35 -79 35 -6 0 -24 -11 -41 -25 -16 -14 -42 -25 -58 -25 -63
0 -89 -11 -95 -41 -7 -32 -20 -34 -108 -20 -44 7 -49 6 -66 -17 -13 -18 -28
-25 -49 -25 -33 0 -61 21 -54 41 2 7 -6 12 -20 12 -13 0 -29 5 -36 12 -17 17
-14 84 7 148 l18 55 -1 -55 c-1 -54 -1 -55 27 -53 17 1 27 -3 27 -12 0 -20 17
-28 45 -21 17 4 35 28 65 85 23 43 50 87 60 96 18 16 18 15 -1 -35 -11 -29
-17 -60 -14 -69 4 -13 -8 -26 -46 -49 -40 -26 -49 -36 -44 -52 3 -10 1 -28 -5
-40 -12 -23 -40 -27 -40 -5 0 9 6 12 15 9 18 -7 32 23 17 38 -27 27 -77 -47
-51 -78 19 -22 47 -16 70 16 12 16 27 26 33 22 17 -10 59 -2 78 15 20 18 13
40 -7 23 -11 -9 -14 -5 -17 17 l-3 28 -17 -30 c-16 -29 -17 -29 -18 -6 0 20
-2 22 -15 11 -9 -7 -18 -10 -21 -7 -4 3 23 19 58 35 36 16 73 42 85 57 19 27
22 28 37 12 23 -22 51 -21 91 3 l32 20 -10 -40 c-8 -29 -8 -43 0 -51 17 -17
43 -3 43 24 0 13 14 44 31 68 47 66 50 67 32 12 -9 -29 -13 -61 -9 -77 5 -22
12 -26 41 -26 22 0 43 8 55 20 36 36 16 57 -22 23 -36 -32 -41 -1 -12 75 14
40 24 79 20 87 -10 28 -36 29 -65 1 l-28 -27 5 54 c3 41 0 57 -13 70 -22 23
-62 22 -75 -2z m-65 -391 c-3 -5 -11 -10 -16 -10 -6 0 -7 5 -4 10 3 6 11 10
16 10 6 0 7 -4 4 -10z m-449 -64 c10 -8 20 -19 20 -25 1 -6 2 -16 3 -22 1 -8
16 -10 47 -5 25 3 43 2 40 -3 -3 -5 10 -9 30 -8 20 1 39 -5 44 -12 6 -11 29
-12 101 -7 52 4 116 8 142 9 40 2 53 7 71 30 28 35 41 35 22 0 -22 -42 -70
-82 -117 -99 -52 -18 -176 -29 -214 -20 -24 6 -26 8 -11 19 14 10 6 13 -46 14
-54 1 -66 5 -85 27 -12 14 -29 26 -37 26 -17 0 -56 51 -56 74 0 20 20 21 46 2z"/>
<path d="M255 858 c-65 -35 -115 -113 -115 -176 0 -41 23 -72 53 -72 21 0 57
35 57 55 0 22 -19 18 -39 -7 -39 -47 -55 15 -22 80 25 48 78 99 90 86 6 -5 5
-44 -2 -99 -16 -133 -15 -200 3 -200 18 0 69 194 70 263 0 66 -43 99 -95 70z"/>
<path d="M761 586 c-5 -13 -19 -26 -30 -29 -26 -7 -27 -27 -2 -27 15 0 21 -8
23 -32 5 -48 28 -48 28 0 l0 40 55 7 c69 8 72 25 5 25 -43 0 -50 3 -50 20 0
27 -19 25 -29 -4z"/>
<path d="M476 526 c3 -8 13 -12 25 -9 16 5 18 8 7 14 -20 13 -38 11 -32 -5z"/>
<path d="M317 523 c-4 -3 -7 -11 -7 -17 0 -6 5 -5 12 2 6 6 9 14 7 17 -3 3 -9
2 -12 -2z"/>
<path d="M410 219 c14 -12 50 -34 80 -48 50 -24 66 -26 175 -26 124 0 172 12
230 59 11 9 -11 1 -50 -16 -67 -31 -76 -33 -185 -32 -121 0 -163 11 -244 65
l-31 21 25 -23z"/>
<path d="M745 178 c-22 -5 -76 -8 -120 -5 -44 2 -69 1 -55 -3 40 -13 162 -10
205 5 47 15 28 17 -30 3z"/>
</g>
</svg>
